<svg width="25" height="21" viewBox="0 0 25 21" fill="none" xmlns="http://www.w3.org/2000/svg">
<path id="Vector" d="M1.20968 0C0.539315 0 0 0.540144 0 1.21154V3.63462C0 4.30601 0.539315 4.84615 1.20968 4.84615H3.62903C4.2994 4.84615 4.83871 4.30601 4.83871 3.63462V1.21154C4.83871 0.540144 4.2994 0 3.62903 0H1.20968ZM8.87097 0.807692C7.97883 0.807692 7.25806 1.52957 7.25806 2.42308C7.25806 3.31659 7.97883 4.03846 8.87097 4.03846H23.3871C24.2792 4.03846 25 3.31659 25 2.42308C25 1.52957 24.2792 0.807692 23.3871 0.807692H8.87097ZM8.87097 8.88461C7.97883 8.88461 7.25806 9.60649 7.25806 10.5C7.25806 11.3935 7.97883 12.1154 8.87097 12.1154H23.3871C24.2792 12.1154 25 11.3935 25 10.5C25 9.60649 24.2792 8.88461 23.3871 8.88461H8.87097ZM8.87097 16.9615C7.97883 16.9615 7.25806 17.6834 7.25806 18.5769C7.25806 19.4704 7.97883 20.1923 8.87097 20.1923H23.3871C24.2792 20.1923 25 19.4704 25 18.5769C25 17.6834 24.2792 16.9615 23.3871 16.9615H8.87097ZM0 9.28846V11.7115C0 12.3829 0.539315 12.9231 1.20968 12.9231H3.62903C4.2994 12.9231 4.83871 12.3829 4.83871 11.7115V9.28846C4.83871 8.61707 4.2994 8.07692 3.62903 8.07692H1.20968C0.539315 8.07692 0 8.61707 0 9.28846ZM1.20968 16.1538C0.539315 16.1538 0 16.694 0 17.3654V19.7885C0 20.4599 0.539315 21 1.20968 21H3.62903C4.2994 21 4.83871 20.4599 4.83871 19.7885V17.3654C4.83871 16.694 4.2994 16.1538 3.62903 16.1538H1.20968Z" fill="#1FABDE"/>
</svg>
