<svg width="896" height="633" viewBox="0 0 896 633" fill="none" xmlns="http://www.w3.org/2000/svg">
<circle cx="447.5" cy="151.5" r="15.5" fill="url(#paint0_linear_1084_1148)"/>
<circle cx="497.5" cy="151.5" r="24.5" fill="url(#paint1_linear_1084_1148)"/>
<circle cx="565.5" cy="151.5" r="33.5" fill="url(#paint2_linear_1084_1148)"/>
<circle cx="565" cy="83" r="24" fill="url(#paint3_linear_1084_1148)"/>
<circle cx="566.5" cy="34.5" r="16.5" fill="url(#paint4_linear_1084_1148)"/>
<circle cx="515.5" cy="33.5" r="23.5" fill="url(#paint5_linear_1084_1148)"/>
<circle cx="447.5" cy="33.5" r="33.5" fill="url(#paint6_linear_1084_1148)"/>
<circle cx="380.5" cy="33.5" r="25.5" fill="url(#paint7_linear_1084_1148)"/>
<circle cx="331" cy="33" r="16" fill="url(#paint8_linear_1084_1148)"/>
<circle cx="330" cy="83" r="25" fill="url(#paint9_linear_1084_1148)"/>
<circle cx="330" cy="151" r="33" fill="url(#paint10_linear_1084_1148)"/>
<circle cx="330" cy="219" r="25" fill="url(#paint11_linear_1084_1148)"/>
<circle cx="448" cy="269" r="33" fill="url(#paint12_linear_1084_1148)"/>
<circle cx="448" cy="201" r="24" fill="url(#paint13_linear_1084_1148)"/>
<circle cx="516" cy="269" r="24" fill="url(#paint14_linear_1084_1148)"/>
<circle cx="380" cy="269" r="24" fill="url(#paint15_linear_1084_1148)"/>
<circle cx="398" cy="151" r="24" fill="url(#paint16_linear_1084_1148)"/>
<circle cx="389" cy="93" r="15" fill="url(#paint17_linear_1084_1148)"/>
<circle cx="506" cy="210" r="15" fill="url(#paint18_linear_1084_1148)"/>
<circle cx="389" cy="210" r="15" fill="url(#paint19_linear_1084_1148)"/>
<circle cx="330" cy="269" r="15" fill="url(#paint20_linear_1084_1148)"/>
<circle cx="565" cy="269" r="15" fill="url(#paint21_linear_1084_1148)"/>
<circle cx="564.5" cy="219.5" r="24.5" fill="url(#paint22_linear_1084_1148)"/>
<circle cx="508" cy="93" r="17" fill="url(#paint23_linear_1084_1148)"/>
<circle cx="447.5" cy="101.5" r="23.5" fill="url(#paint24_linear_1084_1148)"/>
<path d="M115.603 429.33C115.603 453.47 130.393 468.94 151.983 468.94C173.403 468.94 188.193 453.47 188.193 429.33C188.193 405.19 173.403 390.06 151.983 390.06C130.393 390.06 115.603 405.19 115.603 429.33ZM212.673 429.33C212.673 450.92 202.813 468.6 187.683 479.31L214.883 509.91H185.303L167.283 488.32C162.523 489.51 157.253 490.19 151.983 490.19C118.493 490.19 91.1229 465.03 91.1229 429.33C91.1229 393.8 118.493 368.64 151.983 368.64C185.813 368.64 212.673 393.8 212.673 429.33ZM293.611 407.23C293.611 396.69 287.661 390.06 274.401 390.06H254.511V424.91H274.401C287.661 424.91 293.611 417.94 293.611 407.23ZM230.711 370.34H275.251C303.811 370.34 318.091 386.83 318.091 406.72C318.091 421.17 310.101 435.79 291.061 440.89L319.451 489H291.911L265.731 442.76H254.511V489H230.711V370.34ZM463.086 454.66C463.086 473.36 448.126 490.19 421.096 490.19C396.446 490.19 377.406 477.27 377.066 454.83H402.566C403.246 464.35 409.536 470.64 420.586 470.64C431.806 470.64 438.436 464.69 438.436 456.19C438.436 430.52 377.236 445.99 377.406 402.98C377.406 381.56 394.746 368.64 419.226 368.64C443.536 368.64 460.196 381.05 461.726 402.47H435.546C435.036 394.65 428.746 388.53 418.546 388.36C409.196 388.02 402.226 392.61 402.226 402.3C402.226 426.1 463.086 412.84 463.086 454.66ZM574.669 441.91C574.669 471.49 552.909 490.53 525.539 490.53C498.339 490.53 477.769 471.49 477.769 441.91C477.769 412.16 499.019 393.29 526.219 393.29C553.419 393.29 574.669 412.16 574.669 441.91ZM501.909 441.91C501.909 460.61 512.789 469.79 525.539 469.79C538.119 469.79 550.189 460.61 550.189 441.91C550.189 423.04 538.459 414.03 525.879 414.03C513.299 414.03 501.909 423.04 501.909 441.91ZM586.007 441.57C586.007 412.16 605.047 393.29 629.017 393.29C644.147 393.29 654.517 400.43 660.127 408.25V394.82H684.097V489H660.127V475.23C654.517 483.39 643.807 490.53 628.847 490.53C605.047 490.53 586.007 470.98 586.007 441.57ZM660.127 441.91C660.127 424.06 648.227 414.2 635.137 414.2C622.387 414.2 610.317 423.72 610.317 441.57C610.317 459.42 622.387 469.62 635.137 469.62C648.227 469.62 660.127 459.76 660.127 441.91ZM731.142 408.42C736.752 400.43 747.632 393.29 762.252 393.29C786.392 393.29 805.262 412.16 805.262 441.57C805.262 470.98 786.392 490.53 762.252 490.53C747.462 490.53 736.922 483.22 731.142 475.57V533.88H707.342V394.82H731.142V408.42ZM780.952 441.57C780.952 423.72 768.882 414.2 755.962 414.2C743.212 414.2 731.142 424.06 731.142 441.91C731.142 459.76 743.212 469.62 755.962 469.62C768.882 469.62 780.952 459.42 780.952 441.57Z" fill="url(#paint25_linear_1084_1148)"/>
<path d="M335.338 596.224C335.338 602.304 330.41 608.448 320.938 608.448C311.978 608.448 306.09 603.328 305.834 596.48H310.57C310.954 600.192 313.706 604.672 320.938 604.672C327.146 604.672 330.794 601.024 330.794 596.416C330.794 583.232 306.218 591.552 306.218 574.72C306.218 567.808 311.914 562.752 320.554 562.752C329.066 562.752 334.186 567.488 334.954 573.632H330.09C329.578 570.496 326.57 566.656 320.362 566.592C315.114 566.528 310.762 569.408 310.762 574.592C310.762 587.52 335.338 579.584 335.338 596.224ZM345.275 598.528V576.832H340.411V573.056H345.275V564.288H349.819V573.056H359.419V576.832H349.819V598.528C349.819 602.816 351.291 604.16 355.323 604.16H359.419V608H354.619C348.539 608 345.275 605.504 345.275 598.528ZM364.76 590.464C364.76 579.52 371.864 572.544 381.464 572.544C388.504 572.544 393.304 576.32 395.288 580.736V573.056H399.768V608H395.288V600.256C393.24 604.736 388.376 608.512 381.4 608.512C371.864 608.512 364.76 601.408 364.76 590.464ZM395.288 590.528C395.288 581.824 389.464 576.448 382.296 576.448C374.936 576.448 369.304 581.568 369.304 590.464C369.304 599.296 374.936 604.608 382.296 604.608C389.464 604.608 395.288 599.232 395.288 590.528ZM422.667 602.88L434.187 573.056H438.795L418.059 624.448H413.387L420.171 607.808L405.835 573.056H410.763L422.667 602.88ZM486.625 598.72C486.625 604.352 481.697 608.512 474.465 608.512C466.529 608.512 460.961 604.544 460.385 598.144H464.993C465.377 601.984 468.705 604.736 474.401 604.736C479.393 604.736 482.209 602.048 482.209 598.72C482.209 590.08 461.217 595.136 461.217 582.016C461.217 576.832 466.145 572.544 473.505 572.544C480.993 572.544 485.921 576.512 486.305 583.232H481.825C481.569 579.328 478.689 576.384 473.377 576.384C468.705 576.384 465.76 578.88 465.76 581.952C465.76 591.424 486.433 586.368 486.625 598.72ZM493.01 590.464C493.01 579.52 500.114 572.544 509.714 572.544C516.754 572.544 521.554 576.32 523.538 580.736V573.056H528.018V608H523.538V600.256C521.49 604.736 516.626 608.512 509.65 608.512C500.114 608.512 493.01 601.408 493.01 590.464ZM523.538 590.528C523.538 581.824 517.714 576.448 510.546 576.448C503.186 576.448 497.554 581.568 497.554 590.464C497.554 599.296 503.186 604.608 510.546 604.608C517.714 604.608 523.538 599.232 523.538 590.528ZM539.397 608V576.832H534.533V573.056H539.397V570.624C539.397 563.136 542.917 559.552 551.749 559.552V563.392C545.797 563.392 543.877 565.568 543.877 570.624V573.056H552.005V576.832H543.877V608H539.397ZM573.97 576.384C567.634 576.384 562.066 580.48 561.554 588.608H586.13C586.322 580.48 580.434 576.384 573.97 576.384ZM590.162 596.928C588.562 603.52 582.93 608.512 574.162 608.512C564.242 608.512 557.01 601.6 557.01 590.528C557.01 579.392 564.114 572.544 574.162 572.544C584.402 572.544 590.674 579.84 590.674 588.736C590.674 590.144 590.674 591.04 590.546 592.256H561.554C561.938 600.448 567.634 604.736 574.162 604.736C580.114 604.736 584.146 601.6 585.426 596.928H590.162Z" fill="url(#paint26_linear_1084_1148)"/>
<defs>
<linearGradient id="paint0_linear_1084_1148" x1="447.5" y1="136" x2="447.5" y2="167" gradientUnits="userSpaceOnUse">
<stop stop-color="#30314E"/>
<stop offset="1" stop-color="#56586F"/>
</linearGradient>
<linearGradient id="paint1_linear_1084_1148" x1="497.5" y1="127" x2="497.5" y2="176" gradientUnits="userSpaceOnUse">
<stop stop-color="#30314E"/>
<stop offset="1" stop-color="#56586F"/>
</linearGradient>
<linearGradient id="paint2_linear_1084_1148" x1="565.5" y1="118" x2="565.5" y2="185" gradientUnits="userSpaceOnUse">
<stop stop-color="#30314E"/>
<stop offset="1" stop-color="#56586F"/>
</linearGradient>
<linearGradient id="paint3_linear_1084_1148" x1="565" y1="59" x2="565" y2="107" gradientUnits="userSpaceOnUse">
<stop stop-color="#30314E"/>
<stop offset="1" stop-color="#56586F"/>
</linearGradient>
<linearGradient id="paint4_linear_1084_1148" x1="566.5" y1="18" x2="566.5" y2="51" gradientUnits="userSpaceOnUse">
<stop stop-color="#30314E"/>
<stop offset="1" stop-color="#56586F"/>
</linearGradient>
<linearGradient id="paint5_linear_1084_1148" x1="515.5" y1="10" x2="515.5" y2="57" gradientUnits="userSpaceOnUse">
<stop stop-color="#30314E"/>
<stop offset="1" stop-color="#56586F"/>
</linearGradient>
<linearGradient id="paint6_linear_1084_1148" x1="447.5" y1="0" x2="447.5" y2="67" gradientUnits="userSpaceOnUse">
<stop stop-color="#30314E"/>
<stop offset="1" stop-color="#56586F"/>
</linearGradient>
<linearGradient id="paint7_linear_1084_1148" x1="380.5" y1="8" x2="380.5" y2="59" gradientUnits="userSpaceOnUse">
<stop stop-color="#30314E"/>
<stop offset="1" stop-color="#56586F"/>
</linearGradient>
<linearGradient id="paint8_linear_1084_1148" x1="331" y1="17" x2="331" y2="49" gradientUnits="userSpaceOnUse">
<stop stop-color="#30314E"/>
<stop offset="1" stop-color="#56586F"/>
</linearGradient>
<linearGradient id="paint9_linear_1084_1148" x1="330" y1="58" x2="330" y2="108" gradientUnits="userSpaceOnUse">
<stop stop-color="#30314E"/>
<stop offset="1" stop-color="#56586F"/>
</linearGradient>
<linearGradient id="paint10_linear_1084_1148" x1="330" y1="118" x2="330" y2="184" gradientUnits="userSpaceOnUse">
<stop stop-color="#30314E"/>
<stop offset="1" stop-color="#56586F"/>
</linearGradient>
<linearGradient id="paint11_linear_1084_1148" x1="330" y1="194" x2="330" y2="244" gradientUnits="userSpaceOnUse">
<stop stop-color="#30314E"/>
<stop offset="1" stop-color="#56586F"/>
</linearGradient>
<linearGradient id="paint12_linear_1084_1148" x1="448" y1="236" x2="448" y2="302" gradientUnits="userSpaceOnUse">
<stop stop-color="#30314E"/>
<stop offset="1" stop-color="#56586F"/>
</linearGradient>
<linearGradient id="paint13_linear_1084_1148" x1="448" y1="177" x2="448" y2="225" gradientUnits="userSpaceOnUse">
<stop stop-color="#30314E"/>
<stop offset="1" stop-color="#56586F"/>
</linearGradient>
<linearGradient id="paint14_linear_1084_1148" x1="516" y1="245" x2="516" y2="293" gradientUnits="userSpaceOnUse">
<stop stop-color="#30314E"/>
<stop offset="1" stop-color="#56586F"/>
</linearGradient>
<linearGradient id="paint15_linear_1084_1148" x1="380" y1="245" x2="380" y2="293" gradientUnits="userSpaceOnUse">
<stop stop-color="#30314E"/>
<stop offset="1" stop-color="#56586F"/>
</linearGradient>
<linearGradient id="paint16_linear_1084_1148" x1="398" y1="127" x2="398" y2="175" gradientUnits="userSpaceOnUse">
<stop stop-color="#30314E"/>
<stop offset="1" stop-color="#56586F"/>
</linearGradient>
<linearGradient id="paint17_linear_1084_1148" x1="389" y1="78" x2="389" y2="108" gradientUnits="userSpaceOnUse">
<stop stop-color="#30314E"/>
<stop offset="1" stop-color="#56586F"/>
</linearGradient>
<linearGradient id="paint18_linear_1084_1148" x1="506" y1="195" x2="506" y2="225" gradientUnits="userSpaceOnUse">
<stop stop-color="#30314E"/>
<stop offset="1" stop-color="#56586F"/>
</linearGradient>
<linearGradient id="paint19_linear_1084_1148" x1="389" y1="195" x2="389" y2="225" gradientUnits="userSpaceOnUse">
<stop stop-color="#30314E"/>
<stop offset="1" stop-color="#56586F"/>
</linearGradient>
<linearGradient id="paint20_linear_1084_1148" x1="330" y1="254" x2="330" y2="284" gradientUnits="userSpaceOnUse">
<stop stop-color="#30314E"/>
<stop offset="1" stop-color="#56586F"/>
</linearGradient>
<linearGradient id="paint21_linear_1084_1148" x1="565" y1="254" x2="565" y2="284" gradientUnits="userSpaceOnUse">
<stop stop-color="#30314E"/>
<stop offset="1" stop-color="#56586F"/>
</linearGradient>
<linearGradient id="paint22_linear_1084_1148" x1="564.5" y1="195" x2="564.5" y2="244" gradientUnits="userSpaceOnUse">
<stop stop-color="#30314E"/>
<stop offset="1" stop-color="#56586F"/>
</linearGradient>
<linearGradient id="paint23_linear_1084_1148" x1="508" y1="76" x2="508" y2="110" gradientUnits="userSpaceOnUse">
<stop stop-color="#30314E"/>
<stop offset="1" stop-color="#56586F"/>
</linearGradient>
<linearGradient id="paint24_linear_1084_1148" x1="447.5" y1="78" x2="447.5" y2="125" gradientUnits="userSpaceOnUse">
<stop stop-color="#30314E"/>
<stop offset="1" stop-color="#56586F"/>
</linearGradient>
<linearGradient id="paint25_linear_1084_1148" x1="448" y1="302" x2="448" y2="557" gradientUnits="userSpaceOnUse">
<stop stop-color="#30314E"/>
<stop offset="1" stop-color="#56586F"/>
</linearGradient>
<linearGradient id="paint26_linear_1084_1148" x1="448" y1="538" x2="448" y2="633" gradientUnits="userSpaceOnUse">
<stop stop-color="#30314E"/>
<stop offset="1" stop-color="#56586F"/>
</linearGradient>
</defs>
</svg>
