<svg width="30" height="26" viewBox="0 0 30 26" fill="none" xmlns="http://www.w3.org/2000/svg">
<path id="Vector" d="M8.91417 0.378112C9.49419 0.913656 9.54106 1.82228 9.01963 2.41799L4.80129 7.23188C4.5435 7.52673 4.18026 7.70123 3.79358 7.70725C3.40689 7.71326 3.03779 7.56283 2.76243 7.28603L0.413046 4.87909C-0.131823 4.31346 -0.131823 3.39882 0.413046 2.83319C0.957914 2.26756 1.85431 2.26756 2.39918 2.83319L3.69398 4.16303L6.92218 0.480407C7.44361 -0.115311 8.32829 -0.16345 8.90831 0.372094L8.91417 0.378112ZM8.91417 10.0059C9.49419 10.5414 9.54106 11.45 9.01963 12.0458L4.80129 16.8596C4.5435 17.1545 4.18026 17.329 3.79358 17.335C3.40689 17.341 3.03779 17.1906 2.76243 16.9138L0.413046 14.5069C-0.137682 13.9412 -0.137682 13.0266 0.413046 12.467C0.963773 11.9074 1.85431 11.9013 2.39918 12.467L3.69398 13.7968L6.92218 10.1142C7.44361 9.51847 8.32829 9.47033 8.90831 10.0059H8.91417ZM13.1266 3.85614C13.1266 2.79107 13.9645 1.93059 15.0015 1.93059H28.1252C29.1622 1.93059 30 2.79107 30 3.85614C30 4.92121 29.1622 5.78169 28.1252 5.78169H15.0015C13.9645 5.78169 13.1266 4.92121 13.1266 3.85614ZM13.1266 13.4839C13.1266 12.4188 13.9645 11.5584 15.0015 11.5584H28.1252C29.1622 11.5584 30 12.4188 30 13.4839C30 14.549 29.1622 15.4095 28.1252 15.4095H15.0015C13.9645 15.4095 13.1266 14.549 13.1266 13.4839ZM9.37702 23.1117C9.37702 22.0466 10.2148 21.1861 11.2518 21.1861H28.1252C29.1622 21.1861 30 22.0466 30 23.1117C30 24.1767 29.1622 25.0372 28.1252 25.0372H11.2518C10.2148 25.0372 9.37702 24.1767 9.37702 23.1117ZM2.81515 20.2233C3.561 20.2233 4.2763 20.5276 4.8037 21.0693C5.33109 21.611 5.62738 22.3456 5.62738 23.1117C5.62738 23.8777 5.33109 24.6124 4.8037 25.154C4.2763 25.6957 3.561 26 2.81515 26C2.06931 26 1.35401 25.6957 0.826611 25.154C0.299217 24.6124 0.00292938 23.8777 0.00292938 23.1117C0.00292938 22.3456 0.299217 21.611 0.826611 21.0693C1.35401 20.5276 2.06931 20.2233 2.81515 20.2233Z" fill="#1FABDE"/>
</svg>
