<svg width="26" height="26" viewBox="0 0 26 26" fill="none" xmlns="http://www.w3.org/2000/svg">
<path d="M0.0152344 4.54492C0.00507813 4.65156 0 4.76328 0 4.875V11.375V21.125C0 22.9176 1.45742 24.375 3.25 24.375H22.75C24.5426 24.375 26 22.9176 26 21.125V11.375V4.875C26 3.08242 24.5426 1.625 22.75 1.625H3.25C3.13828 1.625 3.02656 1.63008 2.91992 1.64023C2.45273 1.68594 2.01602 1.8332 1.625 2.05664C1.10703 2.36133 0.680469 2.79805 0.391016 3.32617C0.192969 3.69688 0.0609375 4.1082 0.0152344 4.54492ZM2.4375 11.375H23.5625V21.125C23.5625 21.5719 23.1969 21.9375 22.75 21.9375H3.25C2.80312 21.9375 2.4375 21.5719 2.4375 21.125V11.375Z" fill="#1E3050"/>
</svg>
